<svg width="33" height="32" viewBox="0 0 33 32" fill="none" xmlns="http://www.w3.org/2000/svg">
<path fill-rule="evenodd" clip-rule="evenodd" d="M29.4867 12.1613C29.5347 11.872 29.452 11.576 29.2627 11.352C29.072 11.1293 28.7934 11 28.5 11H4.50004C4.20671 11 3.92804 11.1293 3.73738 11.352C3.54804 11.576 3.46538 11.872 3.51338 12.1613C3.51338 12.1613 4.87604 20.4867 5.54671 24.592C5.83738 26.3653 7.36938 27.6667 9.16538 27.6667H23.8347C25.6307 27.6667 27.1627 26.3653 27.4534 24.592L29.4867 12.1613ZM27.3227 13L25.4787 24.2693C25.3467 25.0747 24.6507 25.6667 23.8347 25.6667C20.14 25.6667 12.86 25.6667 9.16538 25.6667C8.34938 25.6667 7.65338 25.0747 7.52138 24.2693L5.67738 13H27.3227Z" fill="#20400d"/>
<path fill-rule="evenodd" clip-rule="evenodd" d="M25.3573 11.4855L21.3573 4.81879C21.0733 4.34545 20.4586 4.19212 19.9853 4.47612C19.512 4.76012 19.3586 5.37479 19.6426 5.84812L23.6426 12.5148C23.9266 12.9881 24.5413 13.1415 25.0146 12.8575C25.488 12.5735 25.6413 11.9588 25.3573 11.4855Z" fill="#20400d"/>
<path fill-rule="evenodd" clip-rule="evenodd" d="M9.35729 12.5148L13.3573 5.84812C13.6413 5.37479 13.488 4.76012 13.0146 4.47612C12.5413 4.19212 11.9266 4.34545 11.6426 4.81879L7.64262 11.4855C7.35862 11.9588 7.51196 12.5735 7.98529 12.8575C8.45862 13.1415 9.07329 12.9881 9.35729 12.5148Z" fill="#20400d"/>
<path fill-rule="evenodd" clip-rule="evenodd" d="M15.5 16.667V22.0003C15.5 22.5523 15.948 23.0003 16.5 23.0003C17.052 23.0003 17.5 22.5523 17.5 22.0003V16.667C17.5 16.115 17.052 15.667 16.5 15.667C15.948 15.667 15.5 16.115 15.5 16.667Z" fill="#20400d"/>
<path fill-rule="evenodd" clip-rule="evenodd" d="M10.167 16.667V22.0003C10.167 22.5523 10.615 23.0003 11.167 23.0003C11.719 23.0003 12.167 22.5523 12.167 22.0003V16.667C12.167 16.115 11.719 15.667 11.167 15.667C10.615 15.667 10.167 16.115 10.167 16.667Z" fill="#20400d"/>
<path fill-rule="evenodd" clip-rule="evenodd" d="M20.834 16.667V22.0003C20.834 22.5523 21.282 23.0003 21.834 23.0003C22.386 23.0003 22.834 22.5523 22.834 22.0003V16.667C22.834 16.115 22.386 15.667 21.834 15.667C21.282 15.667 20.834 16.115 20.834 16.667Z" fill="#20400d"/>
<path fill-rule="evenodd" clip-rule="evenodd" d="M29.8337 11H3.16699C2.61499 11 2.16699 11.448 2.16699 12C2.16699 12.552 2.61499 13 3.16699 13H29.8337C30.3857 13 30.8337 12.552 30.8337 12C30.8337 11.448 30.3857 11 29.8337 11Z" fill="#20400d"/>
</svg>
