<svg width="126" height="23" viewBox="0 0 126 23" fill="none" xmlns="http://www.w3.org/2000/svg">
<path d="M43.046 20.4157C38.5552 20.3792 35.6709 17.1663 36.182 12.712C36.9122 6.43214 43.5206 0.480914 49.837 0.407893C54.5468 0.334872 57.4677 3.62083 56.847 8.29418C56.0073 14.5375 49.2528 20.4522 43.046 20.4157ZM44.5429 18.006C44.7255 17.9695 45.2001 17.9695 45.6748 17.86C49.6179 16.9107 53.3055 12.3834 53.4515 8.25767C53.5976 4.13197 50.4211 1.75879 46.551 3.29223C42.6079 4.82568 40.3807 7.85605 39.6505 11.9818C39.5045 12.858 39.614 13.8073 39.8331 14.6835C40.3807 16.8011 42.0237 18.006 44.5429 18.006Z" fill="white"/>
<path d="M62.7252 21.292C62.7617 20.7443 62.7982 20.3427 62.7982 19.9045C62.3236 19.8315 61.922 19.7585 61.4838 19.6855C58.2709 18.9553 56.8105 16.6551 57.6137 13.4422C58.563 9.64507 61.1552 7.49095 64.8428 6.50516C65.3174 6.39563 65.7921 6.35912 66.3763 6.2861C66.4493 6.14006 66.5953 5.9575 66.6683 5.73844C66.7779 5.51938 66.8509 5.30031 66.9604 5.04474C67.5081 5.04474 68.0557 5.04474 68.7494 5.04474C68.786 5.37333 68.8225 5.77495 68.8955 6.24959C69.1876 6.32261 69.5527 6.35912 69.8813 6.43214C73.1672 7.16235 74.7007 9.42601 74.0435 12.712C73.2402 16.6186 70.575 18.6267 66.9239 19.6125C66.4493 19.722 65.9746 19.7585 65.3905 19.868C65.1714 20.3062 64.9523 20.7808 64.6968 21.292C64.1126 21.292 63.5284 21.292 62.7252 21.292ZM65.9016 8.91486C63.3459 8.76882 60.9362 10.6674 60.279 13.2231C59.6948 15.6328 60.9362 17.3123 63.6014 17.6044C64.3682 14.72 65.1349 11.7992 65.9016 8.91486ZM68.0557 8.73231C67.3255 11.7262 66.6318 14.6105 65.9016 17.5314C68.3843 17.6044 71.0496 15.0852 71.4512 12.931C71.9259 10.5943 70.7575 8.98788 68.0557 8.73231Z" fill="white"/>
<path d="M108.656 11.3611C106.246 14.2454 103.836 17.1297 101.426 20.0506H98.8707C100.076 15.3772 101.28 10.8499 102.485 6.24958H105.041C104.238 9.42601 103.471 12.4929 102.704 15.5233C102.777 15.5598 102.777 15.5598 102.85 15.5963C105.406 12.4929 107.962 9.35298 110.554 6.21307H113.146C111.941 10.8499 110.737 15.4137 109.532 20.0141H107.013C107.743 17.0932 108.436 14.2089 109.13 11.3611C109.203 11.1785 109.276 10.996 109.349 10.7769C109.276 10.7404 109.203 10.7039 109.167 10.6674C108.984 10.9229 108.802 11.142 108.656 11.3611Z" fill="white"/>
<path d="M89.0128 17.4949C90.6923 17.4949 92.1892 17.4949 93.8322 17.4949C94.818 13.7708 95.8403 10.0467 96.8261 6.24959C97.6658 6.24959 98.4326 6.24959 99.3818 6.24959C98.396 9.97367 97.4833 13.5882 96.4975 17.2758C96.7896 17.4218 97.0817 17.6044 97.4833 17.8234C97.0452 19.4299 96.607 21.0364 96.1689 22.7889C95.4022 22.7889 94.6354 22.7889 93.7957 22.7889C93.9783 21.8761 94.1608 21.0729 94.3799 20.0871C91.5321 20.0871 88.7572 20.0871 85.7999 20.0871C87.0412 15.3772 88.2096 10.8864 89.4144 6.24959C90.2177 6.24959 91.0209 6.24959 92.0067 6.24959C90.9479 10.0467 89.9986 13.6977 89.0128 17.4949Z" fill="white"/>
<path d="M115.081 6.24959C115.994 6.24959 116.724 6.24959 117.601 6.24959C117.162 8.07512 116.724 9.82763 116.286 11.6532C117.893 11.6532 119.39 11.6532 121.033 11.6532C121.544 9.86414 122.018 8.07512 122.53 6.24959C123.406 6.24959 124.173 6.24959 125.085 6.24959C123.844 10.9229 122.639 15.4868 121.434 20.0506C120.521 20.0506 119.755 20.0506 118.842 20.0506C119.353 18.152 119.791 16.3265 120.302 14.3914C118.659 14.3914 117.126 14.3914 115.52 14.3914C115.008 16.217 114.497 18.1155 113.986 20.0506C113.219 20.0506 112.453 20.0506 111.43 20.0506C112.672 15.4137 113.84 10.8864 115.081 6.24959Z" fill="white"/>
<path d="M22.235 10.5578C22.527 9.57205 22.8556 8.58626 23.1477 7.63699C24.2795 8.00209 25.3749 8.33069 26.5067 8.69579C26.8353 8.84184 27.1639 8.98788 27.4925 9.13392C28.4052 9.71809 29.2815 10.3023 30.1943 10.9229C33.2246 13.4787 35.5978 16.5091 37.0948 20.4157C35.3788 20.4157 33.8453 20.4157 32.2023 20.4157C30.7784 17.0567 28.9164 13.9168 25.4844 12.0548C24.3891 11.5801 23.3303 11.069 22.235 10.5578Z" fill="white"/>
<path d="M77.9136 20.0506C76.8913 20.0506 76.1246 20.0506 75.1023 20.0506C76.3071 18.4076 77.4025 16.9837 78.5343 15.4503C77.9501 12.4929 77.3294 9.46252 76.7088 6.28609C77.6215 6.28609 78.4248 6.28609 79.4836 6.28609C79.8487 8.29418 80.2138 10.4118 80.6154 12.858C82.2949 10.5578 83.7918 8.44022 85.3618 6.28609C86.1285 6.28609 86.9682 6.28609 88.1731 6.28609C84.6681 10.996 81.2726 15.5233 77.9136 20.0506Z" fill="white"/>
<path d="M30.1943 10.8864C29.2815 10.3023 28.4052 9.71809 27.4925 9.09741C30.2673 6.39563 33.0421 3.73035 35.7804 1.06508C37.3138 1.06508 38.7377 1.06508 40.4172 1.06508C36.8757 4.46056 33.5532 7.6735 30.1943 10.8864Z" fill="white"/>
<path d="M22.235 10.5578C23.3303 11.069 24.3891 11.5801 25.4844 12.0548C24.6812 14.72 23.8779 17.3853 23.0382 20.1236C21.8698 20.1236 20.738 20.1236 19.3506 20.1236C20.3364 16.8742 21.2857 13.7343 22.235 10.5578Z" fill="white"/>
<path d="M26.5067 8.65928C25.3749 8.29418 24.2795 7.96558 23.1477 7.60047C23.7684 5.44635 24.3891 3.29222 25.0463 1.06508C26.2876 1.06508 27.456 1.06508 28.7704 1.06508C28.0036 3.69384 27.2369 6.17656 26.5067 8.65928Z" fill="white"/>
<path d="M16.6123 6.57818C16.0647 6.61469 15.517 6.61469 14.9693 6.6512C10.4785 7.01631 6.27982 8.22116 2.84783 11.3246C1.64298 12.3834 0.584168 13.5882 0.292084 15.3042C2.55574 13.2231 4.89242 11.3611 7.77676 10.3023C10.6611 9.24345 13.655 8.91486 16.7219 9.17043C17.0139 8.58626 17.1235 8.0386 17.0504 7.49094C16.9774 7.16235 16.8314 6.87026 16.6123 6.57818Z" fill="white"/>
<path d="M20.3364 6.21308C20.0808 3.47478 18.6204 1.61274 15.9916 0.772997C15.371 0.590444 14.7138 0.480912 14.0566 0.334869C13.5819 0.334869 13.0708 0.334869 12.5961 0.37138C8.65301 1.02857 5.25752 2.67155 2.51923 6.10354C3.97965 6.10354 5.07497 6.10354 6.17028 6.10354C6.71794 5.73844 7.2656 5.33682 7.81326 4.97171C9.3102 3.98593 10.9532 3.62082 12.6692 3.69384C14.6042 3.76687 16.0281 4.5701 16.6123 6.57818C16.8314 6.87027 16.9774 7.19886 17.0139 7.49095C17.1235 8.0386 16.9774 8.62277 16.6853 9.17043C16.5758 10.9229 15.8456 12.4564 14.7503 13.7708C11.3183 17.86 7.01003 19.7585 1.60646 18.9188C1.60646 19.0648 1.64297 19.2108 1.64297 19.3569C2.92084 19.722 4.1622 20.2697 5.44007 20.4157C8.17837 20.7078 10.7341 19.8315 13.1073 18.5171C17.2695 16.217 20.811 11.3246 20.3364 6.21308Z" fill="white"/>
<path d="M16.6123 6.57818C16.8314 6.87026 16.9774 7.19886 17.0139 7.49094C16.9774 7.16235 16.8314 6.87026 16.6123 6.57818Z" fill="white"/>
<path d="M1.42391 18.8457L1.46042 18.8092C1.31438 18.7727 1.16834 18.7727 0.766724 18.6997C1.13183 18.9188 1.20485 18.9918 1.27787 19.0283C1.31438 18.9553 1.35089 18.9188 1.42391 18.8457Z" fill="white"/>
<path d="M1.60647 18.9188C1.56996 18.8822 1.49694 18.8457 1.42392 18.8092L1.38741 18.8457C1.3509 18.9188 1.27787 18.9918 1.24136 19.0283C1.38741 19.1378 1.49694 19.2474 1.64298 19.3569C1.64298 19.2108 1.60647 19.0648 1.60647 18.9188Z" fill="white"/>
<path d="M1.24136 19.0283C1.27787 18.9553 1.3509 18.9188 1.38741 18.8457C1.3509 18.9188 1.31438 18.9553 1.24136 19.0283Z" fill="white"/>
</svg>
